<mxfile host="app.diagrams.net" modified="2022-10-17T08:32:33.271Z" agent="5.0 (Windows NT 10.0; Win64; x64) AppleWebKit/537.36 (KHTML, like Gecko) Chrome/105.0.0.0 Safari/537.36 Edg/105.0.1343.33" etag="V4TDHvoLXBsqETeERqap" version="20.4.1" type="github">
  <diagram id="Qr1YigqKS2GCUEKO3FnO" name="第 1 页">
    <mxGraphModel dx="868" dy="482" grid="1" gridSize="10" guides="1" tooltips="1" connect="1" arrows="1" fold="1" page="1" pageScale="1" pageWidth="827" pageHeight="1169" math="0" shadow="0">
      <root>
        <mxCell id="0" />
        <mxCell id="1" parent="0" />
        <mxCell id="7nPPFMXoaAF7RyL2psd8-2" value="" style="rounded=0;whiteSpace=wrap;html=1;labelBackgroundColor=#000000;labelBorderColor=#FFFFFF;strokeColor=#000000;fontColor=#000000;fillColor=#FFFFFF;dashed=1;dashPattern=1 2;" vertex="1" parent="1">
          <mxGeometry x="140" y="400" width="530" height="270" as="geometry" />
        </mxCell>
        <mxCell id="7nPPFMXoaAF7RyL2psd8-3" value="" style="shape=table;startSize=0;container=1;collapsible=0;childLayout=tableLayout;labelBackgroundColor=#000000;labelBorderColor=#FFFFFF;strokeColor=#FFFFFF;fontColor=#000000;fillColor=#000000;" vertex="1" parent="1">
          <mxGeometry x="240" y="410" width="80" height="40" as="geometry" />
        </mxCell>
        <mxCell id="7nPPFMXoaAF7RyL2psd8-4" value="" style="shape=tableRow;horizontal=0;startSize=0;swimlaneHead=0;swimlaneBody=0;top=0;left=0;bottom=0;right=0;collapsible=0;dropTarget=0;fillColor=none;points=[[0,0.5],[1,0.5]];portConstraint=eastwest;labelBackgroundColor=#000000;labelBorderColor=#FFFFFF;strokeColor=#000000;fontColor=#000000;" vertex="1" parent="7nPPFMXoaAF7RyL2psd8-3">
          <mxGeometry width="80" height="20" as="geometry" />
        </mxCell>
        <mxCell id="7nPPFMXoaAF7RyL2psd8-5" value="" style="shape=partialRectangle;html=1;whiteSpace=wrap;connectable=0;overflow=hidden;fillColor=none;top=0;left=0;bottom=0;right=0;pointerEvents=1;labelBackgroundColor=#000000;labelBorderColor=#FFFFFF;strokeColor=#000000;fontColor=#000000;" vertex="1" parent="7nPPFMXoaAF7RyL2psd8-4">
          <mxGeometry width="16" height="20" as="geometry">
            <mxRectangle width="16" height="20" as="alternateBounds" />
          </mxGeometry>
        </mxCell>
        <mxCell id="7nPPFMXoaAF7RyL2psd8-6" value="" style="shape=partialRectangle;html=1;whiteSpace=wrap;connectable=0;overflow=hidden;fillColor=none;top=0;left=0;bottom=0;right=0;pointerEvents=1;labelBackgroundColor=#000000;labelBorderColor=#FFFFFF;strokeColor=#000000;fontColor=#000000;" vertex="1" parent="7nPPFMXoaAF7RyL2psd8-4">
          <mxGeometry x="16" width="16" height="20" as="geometry">
            <mxRectangle width="16" height="20" as="alternateBounds" />
          </mxGeometry>
        </mxCell>
        <mxCell id="7nPPFMXoaAF7RyL2psd8-7" value="" style="shape=partialRectangle;html=1;whiteSpace=wrap;connectable=0;overflow=hidden;fillColor=none;top=0;left=0;bottom=0;right=0;pointerEvents=1;labelBackgroundColor=#000000;labelBorderColor=#FFFFFF;strokeColor=#000000;fontColor=#000000;" vertex="1" parent="7nPPFMXoaAF7RyL2psd8-4">
          <mxGeometry x="32" width="16" height="20" as="geometry">
            <mxRectangle width="16" height="20" as="alternateBounds" />
          </mxGeometry>
        </mxCell>
        <mxCell id="7nPPFMXoaAF7RyL2psd8-8" value="" style="shape=partialRectangle;html=1;whiteSpace=wrap;connectable=0;overflow=hidden;fillColor=none;top=0;left=0;bottom=0;right=0;pointerEvents=1;labelBackgroundColor=#000000;labelBorderColor=#FFFFFF;strokeColor=#000000;fontColor=#000000;" vertex="1" parent="7nPPFMXoaAF7RyL2psd8-4">
          <mxGeometry x="48" width="16" height="20" as="geometry">
            <mxRectangle width="16" height="20" as="alternateBounds" />
          </mxGeometry>
        </mxCell>
        <mxCell id="7nPPFMXoaAF7RyL2psd8-9" value="" style="shape=partialRectangle;html=1;whiteSpace=wrap;connectable=0;overflow=hidden;fillColor=none;top=0;left=0;bottom=0;right=0;pointerEvents=1;labelBackgroundColor=#000000;labelBorderColor=#FFFFFF;strokeColor=#000000;fontColor=#000000;" vertex="1" parent="7nPPFMXoaAF7RyL2psd8-4">
          <mxGeometry x="64" width="16" height="20" as="geometry">
            <mxRectangle width="16" height="20" as="alternateBounds" />
          </mxGeometry>
        </mxCell>
        <mxCell id="7nPPFMXoaAF7RyL2psd8-10" value="" style="shape=tableRow;horizontal=0;startSize=0;swimlaneHead=0;swimlaneBody=0;top=0;left=0;bottom=0;right=0;collapsible=0;dropTarget=0;fillColor=none;points=[[0,0.5],[1,0.5]];portConstraint=eastwest;labelBackgroundColor=#000000;labelBorderColor=#FFFFFF;strokeColor=#000000;fontColor=#000000;" vertex="1" parent="7nPPFMXoaAF7RyL2psd8-3">
          <mxGeometry y="20" width="80" height="20" as="geometry" />
        </mxCell>
        <mxCell id="7nPPFMXoaAF7RyL2psd8-11" value="" style="shape=partialRectangle;html=1;whiteSpace=wrap;connectable=0;overflow=hidden;fillColor=none;top=0;left=0;bottom=0;right=0;pointerEvents=1;labelBackgroundColor=#000000;labelBorderColor=#FFFFFF;strokeColor=#000000;fontColor=#000000;" vertex="1" parent="7nPPFMXoaAF7RyL2psd8-10">
          <mxGeometry width="16" height="20" as="geometry">
            <mxRectangle width="16" height="20" as="alternateBounds" />
          </mxGeometry>
        </mxCell>
        <mxCell id="7nPPFMXoaAF7RyL2psd8-12" value="" style="shape=partialRectangle;html=1;whiteSpace=wrap;connectable=0;overflow=hidden;fillColor=none;top=0;left=0;bottom=0;right=0;pointerEvents=1;labelBackgroundColor=#000000;labelBorderColor=#FFFFFF;strokeColor=#000000;fontColor=#000000;" vertex="1" parent="7nPPFMXoaAF7RyL2psd8-10">
          <mxGeometry x="16" width="16" height="20" as="geometry">
            <mxRectangle width="16" height="20" as="alternateBounds" />
          </mxGeometry>
        </mxCell>
        <mxCell id="7nPPFMXoaAF7RyL2psd8-13" value="" style="shape=partialRectangle;html=1;whiteSpace=wrap;connectable=0;overflow=hidden;fillColor=none;top=0;left=0;bottom=0;right=0;pointerEvents=1;labelBackgroundColor=#000000;labelBorderColor=#FFFFFF;strokeColor=#000000;fontColor=#000000;" vertex="1" parent="7nPPFMXoaAF7RyL2psd8-10">
          <mxGeometry x="32" width="16" height="20" as="geometry">
            <mxRectangle width="16" height="20" as="alternateBounds" />
          </mxGeometry>
        </mxCell>
        <mxCell id="7nPPFMXoaAF7RyL2psd8-14" value="" style="shape=partialRectangle;html=1;whiteSpace=wrap;connectable=0;overflow=hidden;fillColor=none;top=0;left=0;bottom=0;right=0;pointerEvents=1;labelBackgroundColor=#000000;labelBorderColor=#FFFFFF;strokeColor=#000000;fontColor=#000000;" vertex="1" parent="7nPPFMXoaAF7RyL2psd8-10">
          <mxGeometry x="48" width="16" height="20" as="geometry">
            <mxRectangle width="16" height="20" as="alternateBounds" />
          </mxGeometry>
        </mxCell>
        <mxCell id="7nPPFMXoaAF7RyL2psd8-15" value="" style="shape=partialRectangle;html=1;whiteSpace=wrap;connectable=0;overflow=hidden;fillColor=none;top=0;left=0;bottom=0;right=0;pointerEvents=1;labelBackgroundColor=#000000;labelBorderColor=#FFFFFF;strokeColor=#000000;fontColor=#000000;" vertex="1" parent="7nPPFMXoaAF7RyL2psd8-10">
          <mxGeometry x="64" width="16" height="20" as="geometry">
            <mxRectangle width="16" height="20" as="alternateBounds" />
          </mxGeometry>
        </mxCell>
        <mxCell id="7nPPFMXoaAF7RyL2psd8-16" value="" style="shape=table;startSize=0;container=1;collapsible=0;childLayout=tableLayout;labelBackgroundColor=#000000;labelBorderColor=#FFFFFF;strokeColor=#FFFFFF;fontColor=#000000;fillColor=#000000;" vertex="1" parent="1">
          <mxGeometry x="240" y="470" width="80" height="40" as="geometry" />
        </mxCell>
        <mxCell id="7nPPFMXoaAF7RyL2psd8-17" value="" style="shape=tableRow;horizontal=0;startSize=0;swimlaneHead=0;swimlaneBody=0;top=0;left=0;bottom=0;right=0;collapsible=0;dropTarget=0;fillColor=none;points=[[0,0.5],[1,0.5]];portConstraint=eastwest;labelBackgroundColor=#000000;labelBorderColor=#FFFFFF;strokeColor=#000000;fontColor=#000000;" vertex="1" parent="7nPPFMXoaAF7RyL2psd8-16">
          <mxGeometry width="80" height="20" as="geometry" />
        </mxCell>
        <mxCell id="7nPPFMXoaAF7RyL2psd8-18" value="" style="shape=partialRectangle;html=1;whiteSpace=wrap;connectable=0;overflow=hidden;fillColor=none;top=0;left=0;bottom=0;right=0;pointerEvents=1;labelBackgroundColor=#000000;labelBorderColor=#FFFFFF;strokeColor=#000000;fontColor=#000000;" vertex="1" parent="7nPPFMXoaAF7RyL2psd8-17">
          <mxGeometry width="16" height="20" as="geometry">
            <mxRectangle width="16" height="20" as="alternateBounds" />
          </mxGeometry>
        </mxCell>
        <mxCell id="7nPPFMXoaAF7RyL2psd8-19" value="" style="shape=partialRectangle;html=1;whiteSpace=wrap;connectable=0;overflow=hidden;fillColor=none;top=0;left=0;bottom=0;right=0;pointerEvents=1;labelBackgroundColor=#000000;labelBorderColor=#FFFFFF;strokeColor=#000000;fontColor=#000000;" vertex="1" parent="7nPPFMXoaAF7RyL2psd8-17">
          <mxGeometry x="16" width="16" height="20" as="geometry">
            <mxRectangle width="16" height="20" as="alternateBounds" />
          </mxGeometry>
        </mxCell>
        <mxCell id="7nPPFMXoaAF7RyL2psd8-20" value="" style="shape=partialRectangle;html=1;whiteSpace=wrap;connectable=0;overflow=hidden;fillColor=none;top=0;left=0;bottom=0;right=0;pointerEvents=1;labelBackgroundColor=#000000;labelBorderColor=#FFFFFF;strokeColor=#000000;fontColor=#000000;" vertex="1" parent="7nPPFMXoaAF7RyL2psd8-17">
          <mxGeometry x="32" width="16" height="20" as="geometry">
            <mxRectangle width="16" height="20" as="alternateBounds" />
          </mxGeometry>
        </mxCell>
        <mxCell id="7nPPFMXoaAF7RyL2psd8-21" value="" style="shape=partialRectangle;html=1;whiteSpace=wrap;connectable=0;overflow=hidden;fillColor=none;top=0;left=0;bottom=0;right=0;pointerEvents=1;labelBackgroundColor=#000000;labelBorderColor=#FFFFFF;strokeColor=#000000;fontColor=#000000;" vertex="1" parent="7nPPFMXoaAF7RyL2psd8-17">
          <mxGeometry x="48" width="16" height="20" as="geometry">
            <mxRectangle width="16" height="20" as="alternateBounds" />
          </mxGeometry>
        </mxCell>
        <mxCell id="7nPPFMXoaAF7RyL2psd8-22" value="" style="shape=partialRectangle;html=1;whiteSpace=wrap;connectable=0;overflow=hidden;fillColor=none;top=0;left=0;bottom=0;right=0;pointerEvents=1;labelBackgroundColor=#000000;labelBorderColor=#FFFFFF;strokeColor=#000000;fontColor=#000000;" vertex="1" parent="7nPPFMXoaAF7RyL2psd8-17">
          <mxGeometry x="64" width="16" height="20" as="geometry">
            <mxRectangle width="16" height="20" as="alternateBounds" />
          </mxGeometry>
        </mxCell>
        <mxCell id="7nPPFMXoaAF7RyL2psd8-23" value="" style="shape=tableRow;horizontal=0;startSize=0;swimlaneHead=0;swimlaneBody=0;top=0;left=0;bottom=0;right=0;collapsible=0;dropTarget=0;fillColor=none;points=[[0,0.5],[1,0.5]];portConstraint=eastwest;labelBackgroundColor=#000000;labelBorderColor=#FFFFFF;strokeColor=#000000;fontColor=#000000;" vertex="1" parent="7nPPFMXoaAF7RyL2psd8-16">
          <mxGeometry y="20" width="80" height="20" as="geometry" />
        </mxCell>
        <mxCell id="7nPPFMXoaAF7RyL2psd8-24" value="" style="shape=partialRectangle;html=1;whiteSpace=wrap;connectable=0;overflow=hidden;fillColor=none;top=0;left=0;bottom=0;right=0;pointerEvents=1;labelBackgroundColor=#000000;labelBorderColor=#FFFFFF;strokeColor=#000000;fontColor=#000000;" vertex="1" parent="7nPPFMXoaAF7RyL2psd8-23">
          <mxGeometry width="16" height="20" as="geometry">
            <mxRectangle width="16" height="20" as="alternateBounds" />
          </mxGeometry>
        </mxCell>
        <mxCell id="7nPPFMXoaAF7RyL2psd8-25" value="" style="shape=partialRectangle;html=1;whiteSpace=wrap;connectable=0;overflow=hidden;fillColor=none;top=0;left=0;bottom=0;right=0;pointerEvents=1;labelBackgroundColor=#000000;labelBorderColor=#FFFFFF;strokeColor=#000000;fontColor=#000000;" vertex="1" parent="7nPPFMXoaAF7RyL2psd8-23">
          <mxGeometry x="16" width="16" height="20" as="geometry">
            <mxRectangle width="16" height="20" as="alternateBounds" />
          </mxGeometry>
        </mxCell>
        <mxCell id="7nPPFMXoaAF7RyL2psd8-26" value="" style="shape=partialRectangle;html=1;whiteSpace=wrap;connectable=0;overflow=hidden;fillColor=none;top=0;left=0;bottom=0;right=0;pointerEvents=1;labelBackgroundColor=#000000;labelBorderColor=#FFFFFF;strokeColor=#000000;fontColor=#000000;" vertex="1" parent="7nPPFMXoaAF7RyL2psd8-23">
          <mxGeometry x="32" width="16" height="20" as="geometry">
            <mxRectangle width="16" height="20" as="alternateBounds" />
          </mxGeometry>
        </mxCell>
        <mxCell id="7nPPFMXoaAF7RyL2psd8-27" value="" style="shape=partialRectangle;html=1;whiteSpace=wrap;connectable=0;overflow=hidden;fillColor=none;top=0;left=0;bottom=0;right=0;pointerEvents=1;labelBackgroundColor=#000000;labelBorderColor=#FFFFFF;strokeColor=#000000;fontColor=#000000;" vertex="1" parent="7nPPFMXoaAF7RyL2psd8-23">
          <mxGeometry x="48" width="16" height="20" as="geometry">
            <mxRectangle width="16" height="20" as="alternateBounds" />
          </mxGeometry>
        </mxCell>
        <mxCell id="7nPPFMXoaAF7RyL2psd8-28" value="" style="shape=partialRectangle;html=1;whiteSpace=wrap;connectable=0;overflow=hidden;fillColor=none;top=0;left=0;bottom=0;right=0;pointerEvents=1;labelBackgroundColor=#000000;labelBorderColor=#FFFFFF;strokeColor=#000000;fontColor=#000000;" vertex="1" parent="7nPPFMXoaAF7RyL2psd8-23">
          <mxGeometry x="64" width="16" height="20" as="geometry">
            <mxRectangle width="16" height="20" as="alternateBounds" />
          </mxGeometry>
        </mxCell>
        <mxCell id="7nPPFMXoaAF7RyL2psd8-29" value="" style="shape=table;startSize=0;container=1;collapsible=0;childLayout=tableLayout;labelBackgroundColor=#000000;labelBorderColor=#FFFFFF;strokeColor=#FFFFFF;fontColor=#000000;fillColor=#000000;" vertex="1" parent="1">
          <mxGeometry x="240" y="530" width="80" height="40" as="geometry" />
        </mxCell>
        <mxCell id="7nPPFMXoaAF7RyL2psd8-30" value="" style="shape=tableRow;horizontal=0;startSize=0;swimlaneHead=0;swimlaneBody=0;top=0;left=0;bottom=0;right=0;collapsible=0;dropTarget=0;fillColor=none;points=[[0,0.5],[1,0.5]];portConstraint=eastwest;labelBackgroundColor=#000000;labelBorderColor=#FFFFFF;strokeColor=#000000;fontColor=#000000;" vertex="1" parent="7nPPFMXoaAF7RyL2psd8-29">
          <mxGeometry width="80" height="20" as="geometry" />
        </mxCell>
        <mxCell id="7nPPFMXoaAF7RyL2psd8-31" value="" style="shape=partialRectangle;html=1;whiteSpace=wrap;connectable=0;overflow=hidden;fillColor=none;top=0;left=0;bottom=0;right=0;pointerEvents=1;labelBackgroundColor=#000000;labelBorderColor=#FFFFFF;strokeColor=#000000;fontColor=#000000;" vertex="1" parent="7nPPFMXoaAF7RyL2psd8-30">
          <mxGeometry width="16" height="20" as="geometry">
            <mxRectangle width="16" height="20" as="alternateBounds" />
          </mxGeometry>
        </mxCell>
        <mxCell id="7nPPFMXoaAF7RyL2psd8-32" value="" style="shape=partialRectangle;html=1;whiteSpace=wrap;connectable=0;overflow=hidden;fillColor=none;top=0;left=0;bottom=0;right=0;pointerEvents=1;labelBackgroundColor=#000000;labelBorderColor=#FFFFFF;strokeColor=#000000;fontColor=#000000;" vertex="1" parent="7nPPFMXoaAF7RyL2psd8-30">
          <mxGeometry x="16" width="16" height="20" as="geometry">
            <mxRectangle width="16" height="20" as="alternateBounds" />
          </mxGeometry>
        </mxCell>
        <mxCell id="7nPPFMXoaAF7RyL2psd8-33" value="" style="shape=partialRectangle;html=1;whiteSpace=wrap;connectable=0;overflow=hidden;fillColor=none;top=0;left=0;bottom=0;right=0;pointerEvents=1;labelBackgroundColor=#000000;labelBorderColor=#FFFFFF;strokeColor=#000000;fontColor=#000000;" vertex="1" parent="7nPPFMXoaAF7RyL2psd8-30">
          <mxGeometry x="32" width="16" height="20" as="geometry">
            <mxRectangle width="16" height="20" as="alternateBounds" />
          </mxGeometry>
        </mxCell>
        <mxCell id="7nPPFMXoaAF7RyL2psd8-34" value="" style="shape=partialRectangle;html=1;whiteSpace=wrap;connectable=0;overflow=hidden;fillColor=none;top=0;left=0;bottom=0;right=0;pointerEvents=1;labelBackgroundColor=#000000;labelBorderColor=#FFFFFF;strokeColor=#000000;fontColor=#000000;" vertex="1" parent="7nPPFMXoaAF7RyL2psd8-30">
          <mxGeometry x="48" width="16" height="20" as="geometry">
            <mxRectangle width="16" height="20" as="alternateBounds" />
          </mxGeometry>
        </mxCell>
        <mxCell id="7nPPFMXoaAF7RyL2psd8-35" value="" style="shape=partialRectangle;html=1;whiteSpace=wrap;connectable=0;overflow=hidden;fillColor=none;top=0;left=0;bottom=0;right=0;pointerEvents=1;labelBackgroundColor=#000000;labelBorderColor=#FFFFFF;strokeColor=#000000;fontColor=#000000;" vertex="1" parent="7nPPFMXoaAF7RyL2psd8-30">
          <mxGeometry x="64" width="16" height="20" as="geometry">
            <mxRectangle width="16" height="20" as="alternateBounds" />
          </mxGeometry>
        </mxCell>
        <mxCell id="7nPPFMXoaAF7RyL2psd8-36" value="" style="shape=tableRow;horizontal=0;startSize=0;swimlaneHead=0;swimlaneBody=0;top=0;left=0;bottom=0;right=0;collapsible=0;dropTarget=0;fillColor=none;points=[[0,0.5],[1,0.5]];portConstraint=eastwest;labelBackgroundColor=#000000;labelBorderColor=#FFFFFF;strokeColor=#000000;fontColor=#000000;" vertex="1" parent="7nPPFMXoaAF7RyL2psd8-29">
          <mxGeometry y="20" width="80" height="20" as="geometry" />
        </mxCell>
        <mxCell id="7nPPFMXoaAF7RyL2psd8-37" value="" style="shape=partialRectangle;html=1;whiteSpace=wrap;connectable=0;overflow=hidden;fillColor=none;top=0;left=0;bottom=0;right=0;pointerEvents=1;labelBackgroundColor=#000000;labelBorderColor=#FFFFFF;strokeColor=#000000;fontColor=#000000;" vertex="1" parent="7nPPFMXoaAF7RyL2psd8-36">
          <mxGeometry width="16" height="20" as="geometry">
            <mxRectangle width="16" height="20" as="alternateBounds" />
          </mxGeometry>
        </mxCell>
        <mxCell id="7nPPFMXoaAF7RyL2psd8-38" value="" style="shape=partialRectangle;html=1;whiteSpace=wrap;connectable=0;overflow=hidden;fillColor=none;top=0;left=0;bottom=0;right=0;pointerEvents=1;labelBackgroundColor=#000000;labelBorderColor=#FFFFFF;strokeColor=#000000;fontColor=#000000;" vertex="1" parent="7nPPFMXoaAF7RyL2psd8-36">
          <mxGeometry x="16" width="16" height="20" as="geometry">
            <mxRectangle width="16" height="20" as="alternateBounds" />
          </mxGeometry>
        </mxCell>
        <mxCell id="7nPPFMXoaAF7RyL2psd8-39" value="" style="shape=partialRectangle;html=1;whiteSpace=wrap;connectable=0;overflow=hidden;fillColor=none;top=0;left=0;bottom=0;right=0;pointerEvents=1;labelBackgroundColor=#000000;labelBorderColor=#FFFFFF;strokeColor=#000000;fontColor=#000000;" vertex="1" parent="7nPPFMXoaAF7RyL2psd8-36">
          <mxGeometry x="32" width="16" height="20" as="geometry">
            <mxRectangle width="16" height="20" as="alternateBounds" />
          </mxGeometry>
        </mxCell>
        <mxCell id="7nPPFMXoaAF7RyL2psd8-40" value="" style="shape=partialRectangle;html=1;whiteSpace=wrap;connectable=0;overflow=hidden;fillColor=none;top=0;left=0;bottom=0;right=0;pointerEvents=1;labelBackgroundColor=#000000;labelBorderColor=#FFFFFF;strokeColor=#000000;fontColor=#000000;" vertex="1" parent="7nPPFMXoaAF7RyL2psd8-36">
          <mxGeometry x="48" width="16" height="20" as="geometry">
            <mxRectangle width="16" height="20" as="alternateBounds" />
          </mxGeometry>
        </mxCell>
        <mxCell id="7nPPFMXoaAF7RyL2psd8-41" value="" style="shape=partialRectangle;html=1;whiteSpace=wrap;connectable=0;overflow=hidden;fillColor=none;top=0;left=0;bottom=0;right=0;pointerEvents=1;labelBackgroundColor=#000000;labelBorderColor=#FFFFFF;strokeColor=#000000;fontColor=#000000;" vertex="1" parent="7nPPFMXoaAF7RyL2psd8-36">
          <mxGeometry x="64" width="16" height="20" as="geometry">
            <mxRectangle width="16" height="20" as="alternateBounds" />
          </mxGeometry>
        </mxCell>
        <mxCell id="7nPPFMXoaAF7RyL2psd8-42" value="" style="shape=table;startSize=0;container=1;collapsible=0;childLayout=tableLayout;labelBackgroundColor=#000000;labelBorderColor=#FFFFFF;strokeColor=#FFFFFF;fontColor=#000000;fillColor=#000000;" vertex="1" parent="1">
          <mxGeometry x="240" y="590" width="80" height="40" as="geometry" />
        </mxCell>
        <mxCell id="7nPPFMXoaAF7RyL2psd8-43" value="" style="shape=tableRow;horizontal=0;startSize=0;swimlaneHead=0;swimlaneBody=0;top=0;left=0;bottom=0;right=0;collapsible=0;dropTarget=0;fillColor=none;points=[[0,0.5],[1,0.5]];portConstraint=eastwest;labelBackgroundColor=#000000;labelBorderColor=#FFFFFF;strokeColor=#000000;fontColor=#000000;" vertex="1" parent="7nPPFMXoaAF7RyL2psd8-42">
          <mxGeometry width="80" height="20" as="geometry" />
        </mxCell>
        <mxCell id="7nPPFMXoaAF7RyL2psd8-44" value="" style="shape=partialRectangle;html=1;whiteSpace=wrap;connectable=0;overflow=hidden;fillColor=none;top=0;left=0;bottom=0;right=0;pointerEvents=1;labelBackgroundColor=#000000;labelBorderColor=#FFFFFF;strokeColor=#000000;fontColor=#000000;" vertex="1" parent="7nPPFMXoaAF7RyL2psd8-43">
          <mxGeometry width="16" height="20" as="geometry">
            <mxRectangle width="16" height="20" as="alternateBounds" />
          </mxGeometry>
        </mxCell>
        <mxCell id="7nPPFMXoaAF7RyL2psd8-45" value="" style="shape=partialRectangle;html=1;whiteSpace=wrap;connectable=0;overflow=hidden;fillColor=none;top=0;left=0;bottom=0;right=0;pointerEvents=1;labelBackgroundColor=#000000;labelBorderColor=#FFFFFF;strokeColor=#000000;fontColor=#000000;" vertex="1" parent="7nPPFMXoaAF7RyL2psd8-43">
          <mxGeometry x="16" width="16" height="20" as="geometry">
            <mxRectangle width="16" height="20" as="alternateBounds" />
          </mxGeometry>
        </mxCell>
        <mxCell id="7nPPFMXoaAF7RyL2psd8-46" value="" style="shape=partialRectangle;html=1;whiteSpace=wrap;connectable=0;overflow=hidden;fillColor=none;top=0;left=0;bottom=0;right=0;pointerEvents=1;labelBackgroundColor=#000000;labelBorderColor=#FFFFFF;strokeColor=#000000;fontColor=#000000;" vertex="1" parent="7nPPFMXoaAF7RyL2psd8-43">
          <mxGeometry x="32" width="16" height="20" as="geometry">
            <mxRectangle width="16" height="20" as="alternateBounds" />
          </mxGeometry>
        </mxCell>
        <mxCell id="7nPPFMXoaAF7RyL2psd8-47" value="" style="shape=partialRectangle;html=1;whiteSpace=wrap;connectable=0;overflow=hidden;fillColor=none;top=0;left=0;bottom=0;right=0;pointerEvents=1;labelBackgroundColor=#000000;labelBorderColor=#FFFFFF;strokeColor=#000000;fontColor=#000000;" vertex="1" parent="7nPPFMXoaAF7RyL2psd8-43">
          <mxGeometry x="48" width="16" height="20" as="geometry">
            <mxRectangle width="16" height="20" as="alternateBounds" />
          </mxGeometry>
        </mxCell>
        <mxCell id="7nPPFMXoaAF7RyL2psd8-48" value="" style="shape=partialRectangle;html=1;whiteSpace=wrap;connectable=0;overflow=hidden;fillColor=none;top=0;left=0;bottom=0;right=0;pointerEvents=1;labelBackgroundColor=#000000;labelBorderColor=#FFFFFF;strokeColor=#000000;fontColor=#000000;" vertex="1" parent="7nPPFMXoaAF7RyL2psd8-43">
          <mxGeometry x="64" width="16" height="20" as="geometry">
            <mxRectangle width="16" height="20" as="alternateBounds" />
          </mxGeometry>
        </mxCell>
        <mxCell id="7nPPFMXoaAF7RyL2psd8-49" value="" style="shape=tableRow;horizontal=0;startSize=0;swimlaneHead=0;swimlaneBody=0;top=0;left=0;bottom=0;right=0;collapsible=0;dropTarget=0;fillColor=none;points=[[0,0.5],[1,0.5]];portConstraint=eastwest;labelBackgroundColor=#000000;labelBorderColor=#FFFFFF;strokeColor=#000000;fontColor=#000000;" vertex="1" parent="7nPPFMXoaAF7RyL2psd8-42">
          <mxGeometry y="20" width="80" height="20" as="geometry" />
        </mxCell>
        <mxCell id="7nPPFMXoaAF7RyL2psd8-50" value="" style="shape=partialRectangle;html=1;whiteSpace=wrap;connectable=0;overflow=hidden;fillColor=none;top=0;left=0;bottom=0;right=0;pointerEvents=1;labelBackgroundColor=#000000;labelBorderColor=#FFFFFF;strokeColor=#000000;fontColor=#000000;" vertex="1" parent="7nPPFMXoaAF7RyL2psd8-49">
          <mxGeometry width="16" height="20" as="geometry">
            <mxRectangle width="16" height="20" as="alternateBounds" />
          </mxGeometry>
        </mxCell>
        <mxCell id="7nPPFMXoaAF7RyL2psd8-51" value="" style="shape=partialRectangle;html=1;whiteSpace=wrap;connectable=0;overflow=hidden;fillColor=none;top=0;left=0;bottom=0;right=0;pointerEvents=1;labelBackgroundColor=#000000;labelBorderColor=#FFFFFF;strokeColor=#000000;fontColor=#000000;" vertex="1" parent="7nPPFMXoaAF7RyL2psd8-49">
          <mxGeometry x="16" width="16" height="20" as="geometry">
            <mxRectangle width="16" height="20" as="alternateBounds" />
          </mxGeometry>
        </mxCell>
        <mxCell id="7nPPFMXoaAF7RyL2psd8-52" value="" style="shape=partialRectangle;html=1;whiteSpace=wrap;connectable=0;overflow=hidden;fillColor=none;top=0;left=0;bottom=0;right=0;pointerEvents=1;labelBackgroundColor=#000000;labelBorderColor=#FFFFFF;strokeColor=#000000;fontColor=#000000;" vertex="1" parent="7nPPFMXoaAF7RyL2psd8-49">
          <mxGeometry x="32" width="16" height="20" as="geometry">
            <mxRectangle width="16" height="20" as="alternateBounds" />
          </mxGeometry>
        </mxCell>
        <mxCell id="7nPPFMXoaAF7RyL2psd8-53" value="" style="shape=partialRectangle;html=1;whiteSpace=wrap;connectable=0;overflow=hidden;fillColor=none;top=0;left=0;bottom=0;right=0;pointerEvents=1;labelBackgroundColor=#000000;labelBorderColor=#FFFFFF;strokeColor=#000000;fontColor=#000000;" vertex="1" parent="7nPPFMXoaAF7RyL2psd8-49">
          <mxGeometry x="48" width="16" height="20" as="geometry">
            <mxRectangle width="16" height="20" as="alternateBounds" />
          </mxGeometry>
        </mxCell>
        <mxCell id="7nPPFMXoaAF7RyL2psd8-54" value="" style="shape=partialRectangle;html=1;whiteSpace=wrap;connectable=0;overflow=hidden;fillColor=none;top=0;left=0;bottom=0;right=0;pointerEvents=1;labelBackgroundColor=#000000;labelBorderColor=#FFFFFF;strokeColor=#000000;fontColor=#000000;" vertex="1" parent="7nPPFMXoaAF7RyL2psd8-49">
          <mxGeometry x="64" width="16" height="20" as="geometry">
            <mxRectangle width="16" height="20" as="alternateBounds" />
          </mxGeometry>
        </mxCell>
        <mxCell id="7nPPFMXoaAF7RyL2psd8-55" style="edgeStyle=none;rounded=0;orthogonalLoop=1;jettySize=auto;html=1;exitX=1;exitY=0.5;exitDx=0;exitDy=0;entryX=0.013;entryY=0.05;entryDx=0;entryDy=0;entryPerimeter=0;fontColor=#000000;startArrow=none;startFill=0;endArrow=classic;endFill=1;" edge="1" parent="1" source="7nPPFMXoaAF7RyL2psd8-56" target="7nPPFMXoaAF7RyL2psd8-10">
          <mxGeometry relative="1" as="geometry" />
        </mxCell>
        <mxCell id="7nPPFMXoaAF7RyL2psd8-56" value="&lt;span style=&quot;background-color: rgb(255, 255, 255);&quot;&gt;kernel=1&lt;/span&gt;" style="rounded=0;whiteSpace=wrap;html=1;labelBackgroundColor=#000000;labelBorderColor=#FFFFFF;strokeColor=#000000;fontColor=#000000;fillColor=#FFFFFF;" vertex="1" parent="1">
          <mxGeometry x="160" y="420" width="55" height="20" as="geometry" />
        </mxCell>
        <mxCell id="7nPPFMXoaAF7RyL2psd8-57" style="edgeStyle=none;rounded=0;orthogonalLoop=1;jettySize=auto;html=1;exitX=1;exitY=0.5;exitDx=0;exitDy=0;entryX=0.025;entryY=0;entryDx=0;entryDy=0;entryPerimeter=0;fontColor=#000000;startArrow=none;startFill=0;endArrow=classic;endFill=1;" edge="1" parent="1" source="7nPPFMXoaAF7RyL2psd8-58" target="7nPPFMXoaAF7RyL2psd8-23">
          <mxGeometry relative="1" as="geometry" />
        </mxCell>
        <mxCell id="7nPPFMXoaAF7RyL2psd8-58" value="&lt;span style=&quot;background-color: rgb(255, 255, 255);&quot;&gt;kernel=3&lt;/span&gt;" style="rounded=0;whiteSpace=wrap;html=1;labelBackgroundColor=#000000;labelBorderColor=#FFFFFF;strokeColor=#000000;fontColor=#000000;fillColor=#FFFFFF;" vertex="1" parent="1">
          <mxGeometry x="160" y="480" width="55" height="20" as="geometry" />
        </mxCell>
        <mxCell id="7nPPFMXoaAF7RyL2psd8-59" style="edgeStyle=none;rounded=0;orthogonalLoop=1;jettySize=auto;html=1;exitX=1;exitY=0.5;exitDx=0;exitDy=0;entryX=0.063;entryY=0;entryDx=0;entryDy=0;entryPerimeter=0;fontColor=#000000;startArrow=none;startFill=0;endArrow=classic;endFill=1;" edge="1" parent="1" source="7nPPFMXoaAF7RyL2psd8-60" target="7nPPFMXoaAF7RyL2psd8-36">
          <mxGeometry relative="1" as="geometry" />
        </mxCell>
        <mxCell id="7nPPFMXoaAF7RyL2psd8-60" value="&lt;span style=&quot;background-color: rgb(255, 255, 255);&quot;&gt;kernel=5&lt;/span&gt;" style="rounded=0;whiteSpace=wrap;html=1;labelBackgroundColor=#000000;labelBorderColor=#FFFFFF;strokeColor=#000000;fontColor=#000000;fillColor=#FFFFFF;" vertex="1" parent="1">
          <mxGeometry x="160" y="540" width="55" height="20" as="geometry" />
        </mxCell>
        <mxCell id="7nPPFMXoaAF7RyL2psd8-61" style="edgeStyle=none;rounded=0;orthogonalLoop=1;jettySize=auto;html=1;exitX=1;exitY=0.5;exitDx=0;exitDy=0;entryX=0.013;entryY=-0.05;entryDx=0;entryDy=0;entryPerimeter=0;fontColor=#000000;startArrow=none;startFill=0;endArrow=classic;endFill=1;" edge="1" parent="1" source="7nPPFMXoaAF7RyL2psd8-62" target="7nPPFMXoaAF7RyL2psd8-49">
          <mxGeometry relative="1" as="geometry" />
        </mxCell>
        <mxCell id="7nPPFMXoaAF7RyL2psd8-62" value="&lt;span style=&quot;background-color: rgb(255, 255, 255);&quot;&gt;kernel=7&lt;/span&gt;" style="rounded=0;whiteSpace=wrap;html=1;labelBackgroundColor=#000000;labelBorderColor=#FFFFFF;strokeColor=#000000;fontColor=#000000;fillColor=#FFFFFF;" vertex="1" parent="1">
          <mxGeometry x="160" y="600" width="55" height="20" as="geometry" />
        </mxCell>
        <mxCell id="7nPPFMXoaAF7RyL2psd8-63" value="" style="endArrow=none;html=1;rounded=0;fontColor=#000000;entryX=0.975;entryY=-0.05;entryDx=0;entryDy=0;entryPerimeter=0;exitX=0.963;exitY=0;exitDx=0;exitDy=0;exitPerimeter=0;" edge="1" parent="1" source="7nPPFMXoaAF7RyL2psd8-10" target="7nPPFMXoaAF7RyL2psd8-49">
          <mxGeometry relative="1" as="geometry">
            <mxPoint x="320" y="420" as="sourcePoint" />
            <mxPoint x="380" y="420" as="targetPoint" />
            <Array as="points">
              <mxPoint x="380" y="430" />
              <mxPoint x="380" y="609" />
            </Array>
          </mxGeometry>
        </mxCell>
        <mxCell id="7nPPFMXoaAF7RyL2psd8-64" value="" style="endArrow=classic;html=1;rounded=0;fontColor=#000000;endFill=1;" edge="1" parent="1" target="7nPPFMXoaAF7RyL2psd8-66">
          <mxGeometry relative="1" as="geometry">
            <mxPoint x="380" y="460" as="sourcePoint" />
            <mxPoint x="431" y="461" as="targetPoint" />
          </mxGeometry>
        </mxCell>
        <mxCell id="7nPPFMXoaAF7RyL2psd8-65" style="edgeStyle=none;rounded=0;orthogonalLoop=1;jettySize=auto;html=1;exitX=0.5;exitY=1;exitDx=0;exitDy=0;exitPerimeter=0;entryX=0.25;entryY=0;entryDx=0;entryDy=0;fontColor=#000000;startArrow=none;startFill=0;endArrow=classic;endFill=1;" edge="1" parent="1" source="7nPPFMXoaAF7RyL2psd8-66" target="7nPPFMXoaAF7RyL2psd8-69">
          <mxGeometry relative="1" as="geometry" />
        </mxCell>
        <mxCell id="7nPPFMXoaAF7RyL2psd8-66" value="多尺度特征注意力" style="strokeWidth=2;html=1;shape=mxgraph.flowchart.start_1;whiteSpace=wrap;labelBackgroundColor=#FFFFFF;labelBorderColor=#FFFFFF;strokeColor=#000000;fontColor=#000000;fillColor=#FFFFFF;" vertex="1" parent="1">
          <mxGeometry x="420" y="430" width="110" height="60" as="geometry" />
        </mxCell>
        <mxCell id="7nPPFMXoaAF7RyL2psd8-67" value="" style="endArrow=classic;html=1;rounded=0;fontColor=#000000;endFill=1;" edge="1" parent="1">
          <mxGeometry relative="1" as="geometry">
            <mxPoint x="380" y="590" as="sourcePoint" />
            <mxPoint x="470" y="590" as="targetPoint" />
          </mxGeometry>
        </mxCell>
        <mxCell id="7nPPFMXoaAF7RyL2psd8-68" style="edgeStyle=none;rounded=0;orthogonalLoop=1;jettySize=auto;html=1;exitX=1;exitY=0.5;exitDx=0;exitDy=0;entryX=0;entryY=0.5;entryDx=0;entryDy=0;fontColor=#000000;startArrow=none;startFill=0;endArrow=classic;endFill=1;" edge="1" parent="1" source="7nPPFMXoaAF7RyL2psd8-69" target="7nPPFMXoaAF7RyL2psd8-70">
          <mxGeometry relative="1" as="geometry" />
        </mxCell>
        <mxCell id="7nPPFMXoaAF7RyL2psd8-69" value="X" style="whiteSpace=wrap;html=1;align=center;labelBackgroundColor=#FFFFFF;labelBorderColor=#FFFFFF;strokeColor=#000000;fontColor=#000000;fillColor=#FFFFFF;" vertex="1" parent="1">
          <mxGeometry x="470" y="580" width="30" height="30" as="geometry" />
        </mxCell>
        <mxCell id="7nPPFMXoaAF7RyL2psd8-70" value="" style="shape=table;startSize=0;container=1;collapsible=0;childLayout=tableLayout;labelBackgroundColor=#000000;labelBorderColor=#FFFFFF;strokeColor=#FFFFFF;fontColor=#000000;fillColor=#000000;" vertex="1" parent="1">
          <mxGeometry x="555" y="575" width="80" height="40" as="geometry" />
        </mxCell>
        <mxCell id="7nPPFMXoaAF7RyL2psd8-71" value="" style="shape=tableRow;horizontal=0;startSize=0;swimlaneHead=0;swimlaneBody=0;top=0;left=0;bottom=0;right=0;collapsible=0;dropTarget=0;fillColor=none;points=[[0,0.5],[1,0.5]];portConstraint=eastwest;labelBackgroundColor=#000000;labelBorderColor=#FFFFFF;strokeColor=#000000;fontColor=#000000;" vertex="1" parent="7nPPFMXoaAF7RyL2psd8-70">
          <mxGeometry width="80" height="20" as="geometry" />
        </mxCell>
        <mxCell id="7nPPFMXoaAF7RyL2psd8-72" value="" style="shape=partialRectangle;html=1;whiteSpace=wrap;connectable=0;overflow=hidden;fillColor=none;top=0;left=0;bottom=0;right=0;pointerEvents=1;labelBackgroundColor=#000000;labelBorderColor=#FFFFFF;strokeColor=#000000;fontColor=#000000;" vertex="1" parent="7nPPFMXoaAF7RyL2psd8-71">
          <mxGeometry width="16" height="20" as="geometry">
            <mxRectangle width="16" height="20" as="alternateBounds" />
          </mxGeometry>
        </mxCell>
        <mxCell id="7nPPFMXoaAF7RyL2psd8-73" value="" style="shape=partialRectangle;html=1;whiteSpace=wrap;connectable=0;overflow=hidden;fillColor=none;top=0;left=0;bottom=0;right=0;pointerEvents=1;labelBackgroundColor=#000000;labelBorderColor=#FFFFFF;strokeColor=#000000;fontColor=#000000;" vertex="1" parent="7nPPFMXoaAF7RyL2psd8-71">
          <mxGeometry x="16" width="16" height="20" as="geometry">
            <mxRectangle width="16" height="20" as="alternateBounds" />
          </mxGeometry>
        </mxCell>
        <mxCell id="7nPPFMXoaAF7RyL2psd8-74" value="" style="shape=partialRectangle;html=1;whiteSpace=wrap;connectable=0;overflow=hidden;fillColor=none;top=0;left=0;bottom=0;right=0;pointerEvents=1;labelBackgroundColor=#000000;labelBorderColor=#FFFFFF;strokeColor=#000000;fontColor=#000000;" vertex="1" parent="7nPPFMXoaAF7RyL2psd8-71">
          <mxGeometry x="32" width="16" height="20" as="geometry">
            <mxRectangle width="16" height="20" as="alternateBounds" />
          </mxGeometry>
        </mxCell>
        <mxCell id="7nPPFMXoaAF7RyL2psd8-75" value="" style="shape=partialRectangle;html=1;whiteSpace=wrap;connectable=0;overflow=hidden;fillColor=none;top=0;left=0;bottom=0;right=0;pointerEvents=1;labelBackgroundColor=#000000;labelBorderColor=#FFFFFF;strokeColor=#000000;fontColor=#000000;" vertex="1" parent="7nPPFMXoaAF7RyL2psd8-71">
          <mxGeometry x="48" width="16" height="20" as="geometry">
            <mxRectangle width="16" height="20" as="alternateBounds" />
          </mxGeometry>
        </mxCell>
        <mxCell id="7nPPFMXoaAF7RyL2psd8-76" value="" style="shape=partialRectangle;html=1;whiteSpace=wrap;connectable=0;overflow=hidden;fillColor=none;top=0;left=0;bottom=0;right=0;pointerEvents=1;labelBackgroundColor=#000000;labelBorderColor=#FFFFFF;strokeColor=#000000;fontColor=#000000;" vertex="1" parent="7nPPFMXoaAF7RyL2psd8-71">
          <mxGeometry x="64" width="16" height="20" as="geometry">
            <mxRectangle width="16" height="20" as="alternateBounds" />
          </mxGeometry>
        </mxCell>
        <mxCell id="7nPPFMXoaAF7RyL2psd8-77" value="" style="shape=tableRow;horizontal=0;startSize=0;swimlaneHead=0;swimlaneBody=0;top=0;left=0;bottom=0;right=0;collapsible=0;dropTarget=0;fillColor=none;points=[[0,0.5],[1,0.5]];portConstraint=eastwest;labelBackgroundColor=#000000;labelBorderColor=#FFFFFF;strokeColor=#000000;fontColor=#000000;" vertex="1" parent="7nPPFMXoaAF7RyL2psd8-70">
          <mxGeometry y="20" width="80" height="20" as="geometry" />
        </mxCell>
        <mxCell id="7nPPFMXoaAF7RyL2psd8-78" value="" style="shape=partialRectangle;html=1;whiteSpace=wrap;connectable=0;overflow=hidden;fillColor=none;top=0;left=0;bottom=0;right=0;pointerEvents=1;labelBackgroundColor=#000000;labelBorderColor=#FFFFFF;strokeColor=#000000;fontColor=#000000;" vertex="1" parent="7nPPFMXoaAF7RyL2psd8-77">
          <mxGeometry width="16" height="20" as="geometry">
            <mxRectangle width="16" height="20" as="alternateBounds" />
          </mxGeometry>
        </mxCell>
        <mxCell id="7nPPFMXoaAF7RyL2psd8-79" value="" style="shape=partialRectangle;html=1;whiteSpace=wrap;connectable=0;overflow=hidden;fillColor=none;top=0;left=0;bottom=0;right=0;pointerEvents=1;labelBackgroundColor=#000000;labelBorderColor=#FFFFFF;strokeColor=#000000;fontColor=#000000;" vertex="1" parent="7nPPFMXoaAF7RyL2psd8-77">
          <mxGeometry x="16" width="16" height="20" as="geometry">
            <mxRectangle width="16" height="20" as="alternateBounds" />
          </mxGeometry>
        </mxCell>
        <mxCell id="7nPPFMXoaAF7RyL2psd8-80" value="" style="shape=partialRectangle;html=1;whiteSpace=wrap;connectable=0;overflow=hidden;fillColor=none;top=0;left=0;bottom=0;right=0;pointerEvents=1;labelBackgroundColor=#000000;labelBorderColor=#FFFFFF;strokeColor=#000000;fontColor=#000000;" vertex="1" parent="7nPPFMXoaAF7RyL2psd8-77">
          <mxGeometry x="32" width="16" height="20" as="geometry">
            <mxRectangle width="16" height="20" as="alternateBounds" />
          </mxGeometry>
        </mxCell>
        <mxCell id="7nPPFMXoaAF7RyL2psd8-81" value="" style="shape=partialRectangle;html=1;whiteSpace=wrap;connectable=0;overflow=hidden;fillColor=none;top=0;left=0;bottom=0;right=0;pointerEvents=1;labelBackgroundColor=#000000;labelBorderColor=#FFFFFF;strokeColor=#000000;fontColor=#000000;" vertex="1" parent="7nPPFMXoaAF7RyL2psd8-77">
          <mxGeometry x="48" width="16" height="20" as="geometry">
            <mxRectangle width="16" height="20" as="alternateBounds" />
          </mxGeometry>
        </mxCell>
        <mxCell id="7nPPFMXoaAF7RyL2psd8-82" value="" style="shape=partialRectangle;html=1;whiteSpace=wrap;connectable=0;overflow=hidden;fillColor=none;top=0;left=0;bottom=0;right=0;pointerEvents=1;labelBackgroundColor=#000000;labelBorderColor=#FFFFFF;strokeColor=#000000;fontColor=#000000;" vertex="1" parent="7nPPFMXoaAF7RyL2psd8-77">
          <mxGeometry x="64" width="16" height="20" as="geometry">
            <mxRectangle width="16" height="20" as="alternateBounds" />
          </mxGeometry>
        </mxCell>
        <mxCell id="7nPPFMXoaAF7RyL2psd8-83" value="&lt;span style=&quot;background-color: rgb(255, 255, 255);&quot;&gt;128&lt;/span&gt;" style="rounded=0;whiteSpace=wrap;html=1;labelBackgroundColor=#000000;labelBorderColor=#FFFFFF;strokeColor=#000000;fontColor=#000000;fillColor=#FFFFFF;" vertex="1" parent="1">
          <mxGeometry x="567.5" y="550" width="55" height="20" as="geometry" />
        </mxCell>
        <mxCell id="7nPPFMXoaAF7RyL2psd8-84" value="&lt;span style=&quot;background-color: rgb(255, 255, 255);&quot;&gt;conv1&lt;/span&gt;" style="rounded=0;whiteSpace=wrap;html=1;labelBackgroundColor=#000000;labelBorderColor=#FFFFFF;strokeColor=#000000;fontColor=#000000;fillColor=#FFFFFF;" vertex="1" parent="1">
          <mxGeometry x="160" y="450" width="55" height="20" as="geometry" />
        </mxCell>
        <mxCell id="7nPPFMXoaAF7RyL2psd8-85" value="&lt;span style=&quot;background-color: rgb(255, 255, 255);&quot;&gt;conv2&lt;/span&gt;" style="rounded=0;whiteSpace=wrap;html=1;labelBackgroundColor=#000000;labelBorderColor=#FFFFFF;strokeColor=#000000;fontColor=#000000;fillColor=#FFFFFF;" vertex="1" parent="1">
          <mxGeometry x="160" y="510" width="55" height="20" as="geometry" />
        </mxCell>
        <mxCell id="7nPPFMXoaAF7RyL2psd8-86" value="&lt;span style=&quot;background-color: rgb(255, 255, 255);&quot;&gt;conv3&lt;/span&gt;" style="rounded=0;whiteSpace=wrap;html=1;labelBackgroundColor=#000000;labelBorderColor=#FFFFFF;strokeColor=#000000;fontColor=#000000;fillColor=#FFFFFF;" vertex="1" parent="1">
          <mxGeometry x="162.5" y="570" width="55" height="20" as="geometry" />
        </mxCell>
        <mxCell id="7nPPFMXoaAF7RyL2psd8-87" value="&lt;span style=&quot;background-color: rgb(255, 255, 255);&quot;&gt;conv4&lt;/span&gt;" style="rounded=0;whiteSpace=wrap;html=1;labelBackgroundColor=#000000;labelBorderColor=#FFFFFF;strokeColor=#000000;fontColor=#000000;fillColor=#FFFFFF;" vertex="1" parent="1">
          <mxGeometry x="162.5" y="630" width="55" height="20" as="geometry" />
        </mxCell>
      </root>
    </mxGraphModel>
  </diagram>
</mxfile>
